<?xml version="1.0" encoding="iso-8859-1"?>
<!-- Uploaded to: SVG Repo, www.svgrepo.com, Generator: SVG Repo Mixer Tools -->
<svg height="800px" width="800px" version="1.1" id="Layer_1" xmlns="http://www.w3.org/2000/svg" xmlns:xlink="http://www.w3.org/1999/xlink" 
	 viewBox="0 0 512 512" xml:space="preserve">
<g>
	<g>
		<path style="fill:#D4D8DA;" d="M42.667,512c-4.71,0-8.533-3.823-8.533-8.533V341.333c0-4.71,3.823-8.533,8.533-8.533
			s8.533,3.823,8.533,8.533v162.133C51.2,508.177,47.377,512,42.667,512"/>
		<path style="fill:#D4D8DA;" d="M469.333,512c-4.71,0-8.533-3.823-8.533-8.533V341.333c0-4.71,3.823-8.533,8.533-8.533
			c4.71,0,8.533,3.823,8.533,8.533v162.133C477.867,508.177,474.044,512,469.333,512"/>
	</g>
	<path style="fill:#464F5D;" d="M375.467,315.733H136.533c-14.14,0-25.6-11.46-25.6-25.6V119.467c0-14.14,11.46-25.6,25.6-25.6
		h238.933c14.14,0,25.6,11.46,25.6,25.6v170.667C401.067,304.273,389.606,315.733,375.467,315.733"/>
	<path style="fill:#8697CB;" d="M136.533,283.307V126.293c0-3.772,3.055-6.827,6.827-6.827h225.28c3.772,0,6.827,3.055,6.827,6.827
		v157.013c0,3.772-3.055,6.827-6.827,6.827H143.36C139.588,290.133,136.533,287.078,136.533,283.307"/>
	<path style="fill:#464F5D;" d="M42.667,358.4L42.667,358.4c-18.85,0-34.133-15.283-34.133-34.133v-281.6
		c0-18.85,15.283-34.133,34.133-34.133S76.8,23.817,76.8,42.667v281.6C76.8,343.117,61.517,358.4,42.667,358.4"/>
	<path style="fill:#D4D8DA;" d="M68.267,512h-51.2c-4.71,0-8.533-3.823-8.533-8.533c0-4.71,3.823-8.533,8.533-8.533h51.2
		c4.71,0,8.533,3.823,8.533,8.533C76.8,508.177,72.977,512,68.267,512"/>
	<g>
		<path style="fill:#2C2F38;" d="M42.667,119.467L42.667,119.467c-14.14,0-25.6-11.46-25.6-25.6s11.46-25.6,25.6-25.6
			s25.6,11.46,25.6,25.6S56.806,119.467,42.667,119.467"/>
		<path style="fill:#2C2F38;" d="M42.667,204.8L42.667,204.8c-14.14,0-25.6-11.46-25.6-25.6c0-14.14,11.46-25.6,25.6-25.6
			s25.6,11.46,25.6,25.6C68.267,193.34,56.806,204.8,42.667,204.8"/>
		<path style="fill:#2C2F38;" d="M42.667,332.8c-4.71,0-8.533-3.823-8.533-8.533v-85.333c0-4.71,3.823-8.533,8.533-8.533
			s8.533,3.823,8.533,8.533v85.333C51.2,328.977,47.377,332.8,42.667,332.8"/>
	</g>
	<path style="fill:#464F5D;" d="M469.333,349.867L469.333,349.867c-18.85,0-34.133-15.283-34.133-34.133v-281.6
		C435.2,15.283,450.483,0,469.333,0c18.85,0,34.133,15.283,34.133,34.133v281.6C503.467,334.583,488.184,349.867,469.333,349.867"/>
	<path style="fill:#D4D8DA;" d="M494.933,512h-51.2c-4.71,0-8.533-3.823-8.533-8.533c0-4.71,3.823-8.533,8.533-8.533h51.2
		c4.71,0,8.533,3.823,8.533,8.533C503.467,508.177,499.644,512,494.933,512"/>
	<g>
		<path style="fill:#2C2F38;" d="M469.333,119.467L469.333,119.467c-14.14,0-25.6-11.46-25.6-25.6s11.46-25.6,25.6-25.6
			c14.14,0,25.6,11.46,25.6,25.6S483.473,119.467,469.333,119.467"/>
		<path style="fill:#2C2F38;" d="M469.333,196.267L469.333,196.267c-14.14,0-25.6-11.46-25.6-25.6c0-14.14,11.46-25.6,25.6-25.6
			c14.14,0,25.6,11.46,25.6,25.6C494.933,184.806,483.473,196.267,469.333,196.267"/>
		<path style="fill:#2C2F38;" d="M469.333,332.8c-4.71,0-8.533-3.823-8.533-8.533v-85.333c0-4.71,3.823-8.533,8.533-8.533
			c4.71,0,8.533,3.823,8.533,8.533v85.333C477.867,328.977,474.044,332.8,469.333,332.8"/>
	</g>
	<polygon style="fill:#85573F;" points="110.933,435.2 401.067,435.2 401.067,366.933 110.933,366.933 	"/>
	<polygon style="fill:#6A3E29;" points="110.933,503.467 401.067,503.467 401.067,435.2 110.933,435.2 	"/>
	<polygon style="fill:#2C2F38;" points="358.4,366.933 307.2,315.733 204.8,315.733 153.6,366.933 	"/>
	<g>
		<path style="fill:#FFFFFF;" d="M170.667,187.733c-2.185,0-4.369-0.836-6.033-2.5c-3.337-3.337-3.337-8.73,0-12.066l25.6-25.6
			c3.337-3.337,8.73-3.337,12.066,0s3.337,8.73,0,12.066l-25.6,25.6C175.036,186.897,172.851,187.733,170.667,187.733"/>
		<path style="fill:#FFFFFF;" d="M170.667,230.4c-2.185,0-4.369-0.836-6.033-2.5c-3.337-3.337-3.337-8.73,0-12.066l34.133-34.133
			c3.337-3.337,8.73-3.337,12.066,0c3.337,3.337,3.337,8.73,0,12.066L176.7,227.9C175.036,229.564,172.851,230.4,170.667,230.4"/>
		<path style="fill:#FFFFFF;" d="M221.867,179.2c-2.185,0-4.369-0.836-6.033-2.5c-3.337-3.337-3.337-8.73,0-12.066l17.067-17.067
			c3.337-3.337,8.73-3.337,12.066,0s3.337,8.73,0,12.066L227.9,176.7C226.236,178.364,224.051,179.2,221.867,179.2"/>
	</g>
	<path style="fill:#6A3E29;" d="M273.067,409.6h-34.133c-4.71,0-8.533-3.823-8.533-8.533s3.823-8.533,8.533-8.533h34.133
		c4.71,0,8.533,3.823,8.533,8.533S277.777,409.6,273.067,409.6"/>
	<path style="fill:#85573F;" d="M273.067,477.867h-34.133c-4.71,0-8.533-3.823-8.533-8.533c0-4.71,3.823-8.533,8.533-8.533h34.133
		c4.71,0,8.533,3.823,8.533,8.533C281.6,474.044,277.777,477.867,273.067,477.867"/>
</g>
</svg>